<svg width="19" height="18" viewBox="0 0 19 18" fill="none" xmlns="http://www.w3.org/2000/svg">
<path fill-rule="evenodd" clip-rule="evenodd" d="M18.5097 5.67267C18.5098 6.41716 18.2278 7.13404 17.7206 7.67902C17.2134 8.22401 16.5186 8.55666 15.776 8.61001L14.2787 10.1069C14.6983 10.8171 14.8872 11.7594 14.98 12.8072C15.0742 13.8717 15.0742 15.1163 15.0742 16.4532V16.9607H14.0927V16.4699C14.0927 15.1134 14.0927 13.9105 14.0024 12.8941C13.9233 12.0038 13.779 11.3103 13.5395 10.8068C12.9521 10.7282 12.4156 10.4328 11.9563 10.0686C11.4144 9.63968 10.9325 9.07969 10.5359 8.53983C10.1552 8.01687 9.81006 7.4689 9.50284 6.89963C8.84323 7.35606 7.95442 7.63581 6.97629 7.63581C4.94346 7.63581 3.29541 6.4275 3.29541 4.93649C3.29541 3.56574 4.68825 2.4335 6.49287 2.26025C7.12205 1.10445 8.85845 0.274048 10.9026 0.274048C13.2132 0.274048 15.1312 1.33561 15.5007 2.72846L15.565 2.72797C16.346 2.72797 17.095 3.03821 17.6472 3.59045C18.1995 4.14269 18.5097 4.89169 18.5097 5.67267ZM12.6336 5.95389C12.0674 6.09463 11.486 6.16502 10.9026 6.16345C10.6896 6.16345 10.4795 6.15462 10.2744 6.13695L10.2371 6.18996C10.2901 6.29204 10.3598 6.42406 10.4451 6.5762C10.7257 7.08118 11.0385 7.56758 11.3816 8.03236V7.96071C11.9239 7.96071 12.4932 7.66771 12.9653 7.31876C13.0016 7.29226 13.037 7.26575 13.0708 7.23876C12.8264 6.85065 12.6766 6.41053 12.6336 5.95389ZM13.726 7.97248C13.9759 8.17258 14.2567 8.33056 14.5574 8.4402L13.2716 9.72606C13.0434 9.63379 12.8073 9.49048 12.5653 9.29907C12.3918 9.16023 12.2274 9.0104 12.0731 8.8505C12.6537 8.70032 13.1675 8.38965 13.5484 8.10892C13.6102 8.06328 13.6696 8.01764 13.726 7.97248Z" fill="#8C8B8F"/>
<path d="M5.50572 11.0736C5.83113 11.0733 6.14311 10.9438 6.37302 10.7135C6.60294 10.4833 6.73196 10.1711 6.7317 9.84567C6.73144 9.52026 6.60192 9.20828 6.37163 8.97836C6.14135 8.74845 5.82917 8.61943 5.50376 8.61969C5.17835 8.61995 4.86637 8.74947 4.63645 8.97975C4.52261 9.09378 4.43234 9.22911 4.3708 9.37802C4.30926 9.52693 4.27765 9.6865 4.27778 9.84763C4.27791 10.0088 4.30977 10.1683 4.37155 10.3171C4.43333 10.4659 4.52381 10.6011 4.63784 10.7149C4.86812 10.9449 5.18031 11.0739 5.50572 11.0736ZM2.07023 13.0367C2.39564 13.0365 2.70762 12.907 2.93754 12.6767C3.16745 12.4464 3.29647 12.1342 3.29621 11.8088C3.29595 11.4834 3.16643 11.1714 2.93615 10.9415C2.70586 10.7116 2.39368 10.5826 2.06827 10.5828C1.74286 10.5831 1.43088 10.7126 1.20096 10.9429C0.971049 11.1732 0.84203 11.4854 0.84229 11.8108C0.84255 12.1362 0.972069 12.4482 1.20235 12.6781C1.43264 12.908 1.74482 13.037 2.07023 13.0367ZM11.6395 11.8088C11.6397 11.9699 11.6081 12.1295 11.5465 12.2784C11.485 12.4273 11.3947 12.5627 11.2809 12.6767C11.167 12.7907 11.0318 12.8812 10.883 12.943C10.7342 13.0048 10.5747 13.0366 10.4136 13.0367C10.0881 13.037 9.77596 12.908 9.54568 12.6781C9.31539 12.4482 9.18588 12.1362 9.18562 11.8108C9.18549 11.6496 9.2171 11.4901 9.27864 11.3412C9.34018 11.1922 9.43045 11.0569 9.54429 10.9429C9.77421 10.7126 10.0862 10.5831 10.4116 10.5828C10.737 10.5826 11.0492 10.7116 11.2795 10.9415C11.5098 11.1714 11.6393 11.4834 11.6395 11.8088ZM5.25836 11.5634C5.51869 11.5634 5.76836 11.6668 5.95244 11.8509C6.13652 12.035 6.23993 12.2847 6.23993 12.545V13.5265H7.2215C7.48183 13.5265 7.73149 13.63 7.91557 13.814C8.09965 13.9981 8.20307 14.2478 8.20307 14.5081C8.20307 14.7684 8.09965 15.0181 7.91557 15.2022C7.73149 15.3863 7.48183 15.4897 7.2215 15.4897H5.25836C4.99804 15.4897 4.74837 15.3863 4.56429 15.2022C4.38021 15.0181 4.2768 14.7684 4.2768 14.5081V12.545C4.2768 12.2847 4.38021 12.035 4.56429 11.8509C4.74837 11.6668 4.99804 11.5634 5.25836 11.5634ZM2.80444 14.5081C2.80444 14.2478 2.70103 13.9981 2.51695 13.814C2.33287 13.63 2.0832 13.5265 1.82288 13.5265C1.56255 13.5265 1.31288 13.63 1.1288 13.814C0.944723 13.9981 0.841309 14.2478 0.841309 14.5081V16.962C0.841309 17.2224 0.944723 17.472 1.1288 17.6561C1.31288 17.8402 1.56255 17.9436 1.82288 17.9436H3.78601C4.04634 17.9436 4.29601 17.8402 4.48008 17.6561C4.66416 17.472 4.76758 17.2224 4.76758 16.962C4.76758 16.7017 4.66416 16.452 4.48008 16.268C4.29601 16.0839 4.04634 15.9805 3.78601 15.9805H2.80444V14.5081ZM10.657 13.5265C10.3967 13.5265 10.147 13.63 9.96291 13.814C9.77883 13.9981 9.67542 14.2478 9.67542 14.5081V15.9805H8.69385C8.43352 15.9805 8.18386 16.0839 7.99978 16.268C7.8157 16.452 7.71228 16.7017 7.71228 16.962C7.71228 17.2224 7.8157 17.472 7.99978 17.6561C8.18386 17.8402 8.43352 17.9436 8.69385 17.9436H10.657C10.9173 17.9436 11.167 17.8402 11.3511 17.6561C11.5351 17.472 11.6386 17.2224 11.6386 16.962V14.5081C11.6386 14.2478 11.5351 13.9981 11.3511 13.814C11.167 13.63 10.9173 13.5265 10.657 13.5265Z" fill="#8C8B8F"/>
</svg>
