<svg width="21" height="18" viewBox="0 0 21 18" fill="none" xmlns="http://www.w3.org/2000/svg">
<path d="M17.6614 1.09064H8.09441C7.48494 1.09064 6.90043 1.33275 6.46946 1.76371C6.0385 2.19468 5.79639 2.77919 5.79639 3.38866V10.152C5.79639 10.7615 6.0385 11.346 6.46946 11.777C6.90043 12.2079 7.48494 12.45 8.09441 12.45H11.305L16.1835 14.6587V12.4506H17.6614C18.2708 12.4506 18.8553 12.2084 19.2863 11.7775C19.7173 11.3465 19.9594 10.762 19.9594 10.1525V3.38866C19.9594 2.77919 19.7173 2.19468 19.2863 1.76371C18.8553 1.33275 18.2708 1.09064 17.6614 1.09064Z" stroke="#8C8B8F" stroke-width="1.2" stroke-linecap="round" stroke-linejoin="round"/>
<path d="M10.5987 12.5053V13.4725C10.5987 14.3713 9.87356 15.0965 8.97988 15.0965H6.89634L3.65356 16.603V15.0965H2.68329C1.78961 15.0965 1.06445 14.3713 1.06445 13.4725V9.01947C1.06445 8.12579 1.78961 7.40063 2.68329 7.40063H5.70647" stroke="#8C8B8F" stroke-width="1.2" stroke-linecap="round" stroke-linejoin="round"/>
</svg>
