<svg width="14" height="12" viewBox="0 0 14 12" fill="none" xmlns="http://www.w3.org/2000/svg">
<path d="M11.7507 1.73928H9.9922L9.12752 0.44258C9.08119 0.373147 9.01846 0.316211 8.94487 0.276817C8.87128 0.237422 8.78912 0.216786 8.70565 0.216736H4.64552C4.56205 0.216786 4.47989 0.237422 4.4063 0.276817C4.33271 0.316211 4.26997 0.373147 4.22365 0.44258L3.35834 1.73928H1.60043C1.19662 1.73928 0.809358 1.89969 0.523825 2.18523C0.238292 2.47076 0.0778809 2.85803 0.0778809 3.26183V10.367C0.0778809 10.7709 0.238292 11.1581 0.523825 11.4437C0.809358 11.7292 1.19662 11.8896 1.60043 11.8896H11.7507C12.1545 11.8896 12.5418 11.7292 12.8273 11.4437C13.1129 11.1581 13.2733 10.7709 13.2733 10.367V3.26183C13.2733 2.85803 13.1129 2.47076 12.8273 2.18523C12.5418 1.89969 12.1545 1.73928 11.7507 1.73928ZM8.9594 6.56068C8.9594 7.01238 8.82546 7.45393 8.57451 7.8295C8.32356 8.20508 7.96688 8.4978 7.54956 8.67066C7.13225 8.84351 6.67305 8.88874 6.23003 8.80062C5.78702 8.7125 5.38008 8.49498 5.06068 8.17559C4.74128 7.85619 4.52377 7.44925 4.43565 7.00623C4.34753 6.56321 4.39275 6.10401 4.56561 5.6867C4.73847 5.26939 5.03119 4.9127 5.40676 4.66175C5.78233 4.4108 6.22389 4.27686 6.67558 4.27686C7.28129 4.27686 7.86219 4.51748 8.29049 4.94578C8.71879 5.37408 8.9594 5.95497 8.9594 6.56068Z" fill="#8E8D91"/>
</svg>
