<svg width="18" height="17" viewBox="0 0 18 17" fill="none" xmlns="http://www.w3.org/2000/svg">
<path d="M5.93429 14.7373H3.53228C3.10757 14.7373 2.70027 14.5686 2.39996 14.2683C2.09965 13.968 1.93093 13.5607 1.93093 13.136V12.3353M5.93429 1.92657H3.53228C3.10757 1.92657 2.70027 2.09529 2.39996 2.3956C2.09965 2.69591 1.93093 3.10321 1.93093 3.52792V4.32859M11.5382 8.33194H11.539M5.40286 8.75766L3.80152 7.15632M5.40286 8.75766L3.80152 10.359M5.40286 8.75766H3.40119H1.39951M15.2021 2.38456L10.398 0.943348C10.1589 0.871563 9.90627 0.856696 9.66035 0.899933C9.41443 0.94317 9.18204 1.04331 8.98172 1.19237C8.7814 1.34142 8.61871 1.53525 8.50665 1.75838C8.39458 1.98151 8.33625 2.22775 8.3363 2.47743L8.3363 14.1865C8.33625 14.4361 8.39458 14.6824 8.50665 14.9055C8.61871 15.1286 8.7814 15.3225 8.98172 15.4715C9.18204 15.6206 9.41443 15.7207 9.66035 15.764C9.90627 15.8072 10.1589 15.7923 10.398 15.7205L15.2021 14.2793C15.5319 14.1803 15.8211 13.9776 16.0266 13.7012C16.2321 13.4249 16.3431 13.0896 16.343 12.7452V3.91864C16.3431 3.57424 16.2321 3.23899 16.0266 2.96265C15.8211 2.6863 15.5319 2.48357 15.2021 2.38456Z" stroke="#939296" stroke-width="1.60134" stroke-linecap="round" stroke-linejoin="round"/>
</svg>
