<svg width="17" height="17" viewBox="0 0 17 17" fill="none" xmlns="http://www.w3.org/2000/svg">
<path d="M8.59023 5.78221C9.11147 5.78221 9.53398 5.35968 9.53398 4.83846C9.53398 4.31725 9.11147 3.89471 8.59023 3.89471C8.069 3.89471 7.64648 4.31725 7.64648 4.83846C7.64648 5.35968 8.069 5.78221 8.59023 5.78221Z" fill="#8E8D91"/>
<path d="M8.59014 7.43384C8.98104 7.43384 9.29795 7.75075 9.29795 8.14165V12.8604C9.29795 13.2513 8.98104 13.5682 8.59014 13.5682C8.19924 13.5682 7.88232 13.2513 7.88232 12.8604V8.14165C7.88232 7.75075 8.19924 7.43384 8.59014 7.43384Z" fill="#8E8D91"/>
<path fill-rule="evenodd" clip-rule="evenodd" d="M0.332275 8.61346C0.332275 4.0528 4.02943 0.355652 8.59009 0.355652C13.1508 0.355652 16.8479 4.0528 16.8479 8.61346C16.8479 13.1741 13.1508 16.8713 8.59009 16.8713C4.02943 16.8713 0.332275 13.1741 0.332275 8.61346ZM8.59009 1.77128C4.81126 1.77128 1.7479 4.83463 1.7479 8.61346C1.7479 12.3923 4.81126 15.4557 8.59009 15.4557C12.369 15.4557 15.4323 12.3923 15.4323 8.61346C15.4323 4.83463 12.369 1.77128 8.59009 1.77128Z" fill="#8E8D91"/>
</svg>
