<svg width="14" height="17" viewBox="0 0 14 17" fill="none" xmlns="http://www.w3.org/2000/svg">
<path fill-rule="evenodd" clip-rule="evenodd" d="M6.65152 0.0903931C3.31109 0.0903931 0.529068 2.65254 0.254644 5.9817C0.107125 7.77142 0.659948 9.54848 1.79669 10.9387L5.54654 15.5246C6.20496 16.3299 7.43605 16.3299 8.09458 15.5246L11.8443 10.9387C12.9811 9.54848 13.5339 7.77142 13.3863 5.9817C13.112 2.65254 10.3299 0.0903931 6.98949 0.0903931H6.65152ZM6.82051 2.95898C4.66013 2.95898 2.9088 4.7103 2.9088 6.87068C2.9088 9.03109 4.66013 10.7824 6.82051 10.7824C8.98092 10.7824 10.7322 9.03109 10.7322 6.87068C10.7322 4.7103 8.98092 2.95898 6.82051 2.95898Z" fill="#8E8D91"/>
<path d="M4.54419 6.87068C4.54419 5.57446 5.59503 4.52366 6.89122 4.52366C8.1874 4.52366 9.23824 5.57446 9.23824 6.87068C9.23824 8.16686 8.1874 9.2177 6.89122 9.2177C5.59503 9.2177 4.54419 8.16686 4.54419 6.87068Z" fill="#8E8D91"/>
</svg>
