<svg width="11" height="4" viewBox="0 0 11 4" fill="none" xmlns="http://www.w3.org/2000/svg">
<path d="M1.88963 3.46469C1.5428 3.46469 1.24578 3.34109 0.998585 3.09389C0.751387 2.8467 0.627999 2.54989 0.628419 2.20348C0.628419 1.85664 0.752018 1.55963 0.999216 1.31243C1.24641 1.06523 1.54322 0.941841 1.88963 0.942262C2.23647 0.942262 2.53348 1.06586 2.78068 1.31306C3.02788 1.56026 3.15127 1.85706 3.15085 2.20348C3.15085 2.55031 3.02725 2.84733 2.78005 3.09452C2.53285 3.34172 2.23605 3.46511 1.88963 3.46469ZM5.67328 3.46469C5.32644 3.46469 5.02943 3.34109 4.78223 3.09389C4.53503 2.8467 4.41164 2.54989 4.41206 2.20348C4.41206 1.85664 4.53566 1.55963 4.78286 1.31243C5.03006 1.06523 5.32686 0.941841 5.67328 0.942262C6.02011 0.942262 6.31713 1.06586 6.56432 1.31306C6.81152 1.56026 6.93491 1.85706 6.93449 2.20348C6.93449 2.55031 6.81089 2.84733 6.56369 3.09452C6.3165 3.34172 6.01969 3.46511 5.67328 3.46469ZM9.45692 3.46469C9.11009 3.46469 8.81307 3.34109 8.56587 3.09389C8.31867 2.8467 8.19528 2.54989 8.1957 2.20348C8.1957 1.85664 8.3193 1.55963 8.5665 1.31243C8.8137 1.06523 9.11051 0.941841 9.45692 0.942262C9.80375 0.942262 10.1008 1.06586 10.348 1.31306C10.5952 1.56026 10.7186 1.85706 10.7181 2.20348C10.7181 2.55031 10.5945 2.84733 10.3473 3.09452C10.1001 3.34172 9.80333 3.46511 9.45692 3.46469Z" fill="#939296"/>
<path d="M1.88963 3.46469C1.5428 3.46469 1.24578 3.34109 0.998585 3.09389C0.751387 2.8467 0.627999 2.54989 0.628419 2.20348C0.628419 1.85664 0.752018 1.55963 0.999216 1.31243C1.24641 1.06523 1.54322 0.941841 1.88963 0.942262C2.23647 0.942262 2.53348 1.06586 2.78068 1.31306C3.02788 1.56026 3.15127 1.85706 3.15085 2.20348C3.15085 2.55031 3.02725 2.84733 2.78005 3.09452C2.53285 3.34172 2.23605 3.46511 1.88963 3.46469ZM5.67328 3.46469C5.32644 3.46469 5.02943 3.34109 4.78223 3.09389C4.53503 2.8467 4.41164 2.54989 4.41206 2.20348C4.41206 1.85664 4.53566 1.55963 4.78286 1.31243C5.03006 1.06523 5.32686 0.941841 5.67328 0.942262C6.02011 0.942262 6.31713 1.06586 6.56432 1.31306C6.81152 1.56026 6.93491 1.85706 6.93449 2.20348C6.93449 2.55031 6.81089 2.84733 6.56369 3.09452C6.3165 3.34172 6.01969 3.46511 5.67328 3.46469ZM9.45692 3.46469C9.11009 3.46469 8.81307 3.34109 8.56587 3.09389C8.31867 2.8467 8.19528 2.54989 8.1957 2.20348C8.1957 1.85664 8.3193 1.55963 8.5665 1.31243C8.8137 1.06523 9.11051 0.941841 9.45692 0.942262C9.80375 0.942262 10.1008 1.06586 10.348 1.31306C10.5952 1.56026 10.7186 1.85706 10.7181 2.20348C10.7181 2.55031 10.5945 2.84733 10.3473 3.09452C10.1001 3.34172 9.80333 3.46511 9.45692 3.46469Z" fill="#EC3A6A"/>
</svg>
