<svg width="21" height="22" viewBox="0 0 21 22" fill="none" xmlns="http://www.w3.org/2000/svg">
<path d="M5.53635 0.870493C5.11969 0.739196 4.6729 0.638991 4.24907 0.744853L3.03906 1.04708C2.5835 1.16087 2.20737 1.48117 2.02247 1.91279L0.597248 5.23961C0.415805 5.66315 0.562272 6.15585 0.945615 6.41149C1.42404 6.73053 2.07384 6.55807 2.33108 6.04377L2.94959 4.80719C3.05731 4.59183 3.30327 4.48388 3.5347 4.55039C3.76689 4.61712 3.91812 4.84036 3.89399 5.08073L3.39422 10.0585C3.30543 10.9429 3.99981 11.7105 4.8886 11.7105H8.81562C9.58457 11.7105 10.2293 11.1297 10.3094 10.3649L10.6003 7.58493L10.6321 7.29872C10.6381 7.24523 10.6833 7.20477 10.7371 7.20477C10.7996 7.20477 10.8484 7.15083 10.8422 7.08867L10.6419 5.0819C10.6178 4.84086 10.7696 4.61712 11.0025 4.55039C11.2346 4.48388 11.4811 4.59232 11.5889 4.80834L12.2051 6.04293C12.4619 6.55755 13.1118 6.73039 13.5904 6.41136C13.9737 6.15581 14.1202 5.66317 13.9387 5.23971L12.5131 1.91265C12.3281 1.48111 11.9521 1.16087 11.4966 1.04708L10.2859 0.744623C9.86264 0.638892 9.41656 0.738693 9.00059 0.870106C8.90475 0.900384 8.8057 0.927054 8.70418 0.951252C8.263 1.05498 7.76549 1.10332 7.26799 1.10332C6.77049 1.10332 6.27299 1.05498 5.8318 0.951252C5.73062 0.927134 5.63189 0.900601 5.53635 0.870493ZM11.6981 8.04958C11.5302 8.04958 11.3893 8.17618 11.3714 8.34312C11.3506 8.53731 11.5028 8.70666 11.6981 8.70666H19.3587C19.554 8.70666 19.7062 8.53731 19.6854 8.34312C19.6675 8.17618 19.5266 8.04958 19.3587 8.04958H11.6981ZM12.5956 9.55148C11.8269 9.55148 11.1823 10.1319 11.1019 10.8964L10.1646 19.8139C10.0713 20.7006 10.7666 21.4728 11.6582 21.4728H11.7189C12.4271 21.4728 13.039 20.9781 13.1874 20.2857L15.0288 11.6966C15.0793 11.461 15.2875 11.2927 15.5284 11.2927C15.7693 11.2927 15.9775 11.461 16.028 11.6966L17.8694 20.2857C18.0178 20.9781 18.6298 21.4728 19.3379 21.4728H19.3986C20.2902 21.4728 20.9855 20.7006 20.8923 19.8139L19.9549 10.8964C19.8745 10.1319 19.2299 9.55148 18.4612 9.55148H12.5956Z" fill="#8E8D91"/>
</svg>
