<svg width="14" height="16" viewBox="0 0 14 16" fill="none" xmlns="http://www.w3.org/2000/svg">
<path d="M3.45557 6.27733C3.45557 6.21006 3.48229 6.14554 3.52986 6.09797C3.57743 6.0504 3.64194 6.02368 3.70921 6.02368H10.304C10.3713 6.02368 10.4358 6.0504 10.4834 6.09797C10.5309 6.14554 10.5576 6.21006 10.5576 6.27733C10.5576 6.3446 10.5309 6.40911 10.4834 6.45668C10.4358 6.50425 10.3713 6.53097 10.304 6.53097H3.70921C3.64194 6.53097 3.57743 6.50425 3.52986 6.45668C3.48229 6.40911 3.45557 6.3446 3.45557 6.27733ZM3.45557 7.7992C3.45557 7.73193 3.48229 7.66742 3.52986 7.61985C3.57743 7.57228 3.64194 7.54556 3.70921 7.54556H10.304C10.3713 7.54556 10.4358 7.57228 10.4834 7.61985C10.5309 7.66742 10.5576 7.73193 10.5576 7.7992C10.5576 7.86647 10.5309 7.93099 10.4834 7.97856C10.4358 8.02613 10.3713 8.05285 10.304 8.05285H3.70921C3.64194 8.05285 3.57743 8.02613 3.52986 7.97856C3.48229 7.93099 3.45557 7.86647 3.45557 7.7992ZM3.70921 9.06743C3.64194 9.06743 3.57743 9.09415 3.52986 9.14172C3.48229 9.18929 3.45557 9.25381 3.45557 9.32108C3.45557 9.38835 3.48229 9.45286 3.52986 9.50043C3.57743 9.548 3.64194 9.57472 3.70921 9.57472H10.304C10.3713 9.57472 10.4358 9.548 10.4834 9.50043C10.5309 9.45286 10.5576 9.38835 10.5576 9.32108C10.5576 9.25381 10.5309 9.18929 10.4834 9.14172C10.4358 9.09415 10.3713 9.06743 10.304 9.06743H3.70921ZM3.45557 10.843C3.45557 10.7757 3.48229 10.7112 3.52986 10.6636C3.57743 10.616 3.64194 10.5893 3.70921 10.5893H7.76755C7.83482 10.5893 7.89933 10.616 7.9469 10.6636C7.99447 10.7112 8.02119 10.7757 8.02119 10.843C8.02119 10.9102 7.99447 10.9747 7.9469 11.0223C7.89933 11.0699 7.83482 11.0966 7.76755 11.0966H3.70921C3.64194 11.0966 3.57743 11.0699 3.52986 11.0223C3.48229 10.9747 3.45557 10.9102 3.45557 10.843Z" fill="#8E8D91"/>
<path d="M8.02113 1.45806C8.02113 1.18898 7.91423 0.930917 7.72396 0.740646C7.53369 0.550375 7.27563 0.443481 7.00654 0.443481C6.73746 0.443481 6.4794 0.550375 6.28912 0.740646C6.09885 0.930917 5.99196 1.18898 5.99196 1.45806H5.48467C5.21558 1.45806 4.95752 1.56496 4.76725 1.75523C4.57698 1.9455 4.47008 2.20356 4.47008 2.47265H2.94821C2.81367 2.47265 2.68464 2.52609 2.5895 2.62123C2.49436 2.71637 2.44092 2.8454 2.44092 2.97994V13.6331C2.44092 13.7676 2.49436 13.8966 2.5895 13.9918C2.68464 14.0869 2.81367 14.1404 2.94821 14.1404H8.16976C8.30429 14.1403 8.4333 14.0869 8.52842 13.9917L11.4235 11.0966C11.5187 11.0015 11.5721 10.8725 11.5722 10.738V2.97994C11.5722 2.8454 11.5187 2.71637 11.4236 2.62123C11.3285 2.52609 11.1994 2.47265 11.0649 2.47265H9.543C9.543 2.20356 9.43611 1.9455 9.24584 1.75523C9.05557 1.56496 8.7975 1.45806 8.52842 1.45806H8.02113ZM4.47008 2.97994V3.23359C4.47008 3.30086 4.49681 3.36537 4.54438 3.41294C4.59194 3.46051 4.65646 3.48723 4.72373 3.48723H9.28936C9.35663 3.48723 9.42114 3.46051 9.46871 3.41294C9.51628 3.36537 9.543 3.30086 9.543 3.23359V2.97994H11.0649V10.5893H8.78206C8.58025 10.5893 8.3867 10.6695 8.244 10.8122C8.1013 10.9549 8.02113 11.1484 8.02113 11.3503V13.6331H2.94821V2.97994H4.47008ZM7.51383 1.45806C7.51383 1.59261 7.46039 1.72164 7.36525 1.81677C7.27012 1.91191 7.14109 1.96536 7.00654 1.96536C6.872 1.96536 6.74297 1.91191 6.64783 1.81677C6.5527 1.72164 6.49925 1.59261 6.49925 1.45806C6.49925 1.32352 6.5527 1.19449 6.64783 1.09936C6.74297 1.00422 6.872 0.950773 7.00654 0.950773C7.14109 0.950773 7.27012 1.00422 7.36525 1.09936C7.46039 1.19449 7.51383 1.32352 7.51383 1.45806ZM10.7062 11.0966L8.52842 13.2744V11.3503C8.52842 11.283 8.55514 11.2185 8.60271 11.1709C8.65028 11.1233 8.71479 11.0966 8.78206 11.0966H10.7062Z" fill="#8E8D91"/>
<path d="M11.826 1.96533H10.0504C10.0504 1.69624 9.94355 1.43818 9.75327 1.24791C9.563 1.05764 9.30494 0.950745 9.03586 0.950745H11.826C12.1623 0.950745 12.4849 1.08436 12.7227 1.3222C12.9606 1.56004 13.0942 1.88262 13.0942 2.21897V14.394C13.0942 14.7303 12.9606 15.0529 12.7227 15.2907C12.4849 15.5286 12.1623 15.6622 11.826 15.6622H2.18742C1.85106 15.6622 1.52848 15.5286 1.29065 15.2907C1.05281 15.0529 0.919189 14.7303 0.919189 14.394V2.21897C0.919189 1.88262 1.05281 1.56004 1.29065 1.3222C1.52848 1.08436 1.85106 0.950745 2.18742 0.950745H4.97752C4.70844 0.950745 4.45038 1.05764 4.2601 1.24791C4.06983 1.43818 3.96294 1.69624 3.96294 1.96533H2.18742C2.12015 1.96533 2.05563 1.99205 2.00806 2.03962C1.9605 2.08719 1.93377 2.1517 1.93377 2.21897V14.394C1.93377 14.4612 1.9605 14.5258 2.00806 14.5733C2.05563 14.6209 2.12015 14.6476 2.18742 14.6476H11.826C11.8932 14.6476 11.9577 14.6209 12.0053 14.5733C12.0529 14.5258 12.0796 14.4612 12.0796 14.394V2.21897C12.0796 2.1517 12.0529 2.08719 12.0053 2.03962C11.9577 1.99205 11.8932 1.96533 11.826 1.96533Z" fill="#8E8D91"/>
</svg>
