<svg width="13" height="12" viewBox="0 0 13 12" fill="none" xmlns="http://www.w3.org/2000/svg">
<path d="M1.17831 0.922799C1.3779 0.736183 1.64856 0.631348 1.93078 0.631348C2.213 0.631348 2.48366 0.736183 2.68325 0.922799L6.44664 4.44267L10.21 0.922799C10.4108 0.741471 10.6796 0.641137 10.9587 0.643405C11.2377 0.645673 11.5047 0.750362 11.702 0.934925C11.8993 1.11949 12.0113 1.36916 12.0137 1.63016C12.0161 1.89116 11.9088 2.14261 11.715 2.33035L7.95157 5.85022L11.715 9.37009C11.9088 9.55783 12.0161 9.80928 12.0137 10.0703C12.0113 10.3313 11.8993 10.581 11.702 10.7655C11.5047 10.9501 11.2377 11.0548 10.9587 11.057C10.6796 11.0593 10.4108 10.959 10.21 10.7776L6.44664 7.25777L2.68325 10.7776C2.48251 10.959 2.21367 11.0593 1.93461 11.057C1.65555 11.0548 1.38861 10.9501 1.19128 10.7655C0.993948 10.581 0.882015 10.3313 0.879591 10.0703C0.877166 9.80928 0.984442 9.55783 1.17831 9.37009L4.94171 5.85022L1.17831 2.33035C0.978787 2.14368 0.866699 1.89053 0.866699 1.62657C0.866699 1.36262 0.978787 1.10947 1.17831 0.922799Z" fill="#939296"/>
</svg>
