<svg width="15" height="15" viewBox="0 0 15 15" fill="none" xmlns="http://www.w3.org/2000/svg">
<path d="M7.67554 12.067C8.79442 12.067 9.86748 11.6225 10.6586 10.8313C11.4498 10.0401 11.8943 8.96709 11.8943 7.84821C11.8943 6.72932 11.4498 5.65627 10.6586 4.8651C9.86748 4.07393 8.79442 3.62946 7.67554 3.62946C6.55665 3.62946 5.4836 4.07393 4.69243 4.8651C3.90126 5.65627 3.45679 6.72932 3.45679 7.84821C3.45679 8.96709 3.90126 10.0401 4.69243 10.8313C5.4836 11.6225 6.55665 12.067 7.67554 12.067ZM14.7068 7.84821C14.7068 9.71301 13.966 11.5014 12.6474 12.8201C11.3288 14.1387 9.54034 14.8795 7.67554 14.8795C5.81073 14.8795 4.02231 14.1387 2.70369 12.8201C1.38508 11.5014 0.644287 9.71301 0.644287 7.84821C0.644287 5.9834 1.38508 4.19498 2.70369 2.87636C4.02231 1.55775 5.81073 0.816956 7.67554 0.816956C9.54034 0.816956 11.3288 1.55775 12.6474 2.87636C13.966 4.19498 14.7068 5.9834 14.7068 7.84821ZM13.3005 7.84821C13.3005 6.35636 12.7079 4.92562 11.653 3.87073C10.5981 2.81584 9.16738 2.22321 7.67554 2.22321C6.18369 2.22321 4.75295 2.81584 3.69806 3.87073C2.64317 4.92562 2.05054 6.35636 2.05054 7.84821C2.05054 9.34005 2.64317 10.7708 3.69806 11.8257C4.75295 12.8806 6.18369 13.4732 7.67554 13.4732C9.16738 13.4732 10.5981 12.8806 11.653 11.8257C12.7079 10.7708 13.3005 9.34005 13.3005 7.84821Z" fill="#8E8D91"/>
</svg>
